<svg width="707.1" height="200" xmlns="http://www.w3.org/2000/svg">

 <g>
  <title>background</title>
  <rect fill="none" id="canvas_background" height="402" width="582" y="-1" x="-1"/>
 </g>
 <g>
  <title>Layer 1</title>
  <polygon id="svg_1" points="0,150 0,50 86.6,0 173.2,50 173.2,150 86.6,200 " fill="#ED1C24"/>
  <polygon id="svg_2" points="86.6,133.3 57.7,116.7 57.7,83.3 86.6,66.7 115.5,83.3 144.3,66.7 86.6,33.3 28.9,66.7 28.9,133.3   86.6,166.7 144.3,133.3 115.5,116.7 " fill="#FFFFFF"/>
  <polygon id="svg_3" points="0,50 86.6,100 86.6,0 " stroke-miterlimit="10" stroke="#FFFFFF" opacity="0.04"/>
  <polygon id="svg_4" points="0,150 86.6,200 86.6,100 " stroke-miterlimit="10" stroke="#FFFFFF" opacity="0.04"/>
  <polygon id="svg_5" points="86.6,100 173.2,150 173.2,50   " stroke-miterlimit="10" stroke="#FFFFFF" opacity="0.08"/>
  <polygon id="svg_6" points="86.6,100 0,50 0,150 " fill-opacity="0"/>
  <polygon id="svg_7" points="173.2,150 86.6,100 86.6,200   " stroke-miterlimit="10" stroke="#FFFFFF" opacity="0.08"/>
  <polygon id="svg_8" points="173.2,50 86.6,0 86.6,100 " stroke-miterlimit="10" stroke="#FFFFFF" opacity="0.08"/>
  <text stroke="null" transform="matrix(5.127520461568304,0,0,5.478102887658625,-1058.8244548587625,-489.1506688525274) " xml:space="preserve" text-anchor="start" font-family="Helvetica, Arial, sans-serif" font-size="24" id="svg_17" y="115.493573" x="247.306121" fill-opacity="null" stroke-opacity="null" stroke-width="0" fill="#000000">medi</text>
  <text font-weight="bold" stroke="null" transform="matrix(4.40301730828412,0,0,5.028122107823947,-2350.4057706755834,-368.8243972835544) " xml:space="preserve" text-anchor="start" font-family="Helvetica, Arial, sans-serif" font-size="24" id="svg_18" y="102.112039" x="640.61808" stroke-opacity="null" stroke-width="0" fill="#ff0000">Com</text>
 </g>
</svg>